<?xml version="1.0" encoding="UTF-8"?><svg id="a" xmlns="http://www.w3.org/2000/svg" width="456" height="119" viewBox="0 0 456 119"><g><path d="M207.39,48.8c-.07-.37-.17-.58-.25-.72-.18-.33-.57-.83-1.48-.83-.3,0-.87,.04-1.39,.59-.43,.46-.82,1.25-.82,2.65,0,.94,.19,2.03,.92,2.7,.51,.46,1.07,.49,1.32,.49,.18,0,.63-.01,1.04-.33,.66-.52,.72-1.49,.75-1.68h1.17c-.01,.28-.05,1.23-.59,2.02-.31,.45-.98,1.13-2.32,1.13-.27,0-.94-.02-1.61-.36-.93-.46-2.04-1.58-2.04-3.95,0-2.06,.79-3.15,1.51-3.7,.83-.63,1.71-.68,2.09-.68,1.09,0,2.1,.48,2.57,1.51,.18,.38,.24,.76,.28,1.17h-1.15Z" style="fill:#040000;"/><path d="M212.46,46.7c.81-.55,1.6-.58,1.94-.58,1.26,0,2.03,.59,2.37,.94,.57,.55,1.23,1.58,1.23,3.4,0,.5-.02,2.68-1.73,3.8-.57,.37-1.19,.55-1.87,.55-.3,0-1.01-.04-1.72-.45-1.86-1.07-1.9-3.39-1.9-3.89,.01-1.41,.44-2.92,1.67-3.76m.11,5.79c.18,.34,.36,.53,.47,.65,.52,.51,1.09,.55,1.36,.55,.77,0,1.38-.39,1.76-1.06,.23-.38,.49-1.1,.49-2.17,0-.24,.02-1.84-.89-2.7-.21-.2-.63-.52-1.35-.52-.18,0-.59,.01-1,.26-1.29,.76-1.25,2.76-1.25,2.96,0,.24,0,1.22,.4,2.03" style="fill:#040000;"/><rect x="219.72" y="51.02" width="3.36" height=".93" style="fill:#040000;"/><polygon points="229.96 49.75 229.96 50.86 226.59 50.86 226.59 53.53 230.36 53.53 230.36 54.65 225.3 54.65 225.3 46.27 230.25 46.27 230.25 47.38 226.59 47.38 226.59 49.75 229.96 49.75" style="fill:#040000;"/><polygon points="234.42 46.27 238.12 52.67 238.12 46.27 239.34 46.27 239.34 54.65 238 54.65 234.26 48.25 234.26 54.65 233.03 54.65 233.03 46.27 234.42 46.27" style="fill:#040000;"/><path d="M248.8,50.4v3.46c-.1,.07-.36,.25-.65,.4-.34,.17-1.2,.53-2.29,.53-1.49,0-2.32-.68-2.73-1.14-.45-.52-1.01-1.54-1.01-3.21,0-.47,.01-2.73,1.73-3.81,.31-.19,.96-.52,1.89-.52,1.06,0,2.1,.43,2.61,1.41,.15,.29,.27,.61,.33,1.26h-1.15c-.06-.3-.2-1.16-1.11-1.45-.27-.09-.56-.11-.65-.11-.34,0-1.14,.08-1.7,.88-.45,.65-.59,1.6-.59,2.36,0,1.52,.55,3.2,2.4,3.2,.6,0,1.3-.21,1.83-.55v-1.71h-1.7v-1.02h2.8Z" style="fill:#040000;"/><rect x="251.77" y="46.27" width="1.3" height="8.37" style="fill:#040000;"/><polygon points="257.73 46.27 261.43 52.67 261.43 46.27 262.65 46.27 262.65 54.65 261.31 54.65 257.58 48.25 257.58 54.65 256.34 54.65 256.34 46.27 257.73 46.27" style="fill:#040000;"/><polygon points="270.59 49.75 270.59 50.86 267.22 50.86 267.22 53.53 270.99 53.53 270.99 54.65 265.93 54.65 265.93 46.27 270.88 46.27 270.88 47.38 267.22 47.38 267.22 49.75 270.59 49.75" style="fill:#040000;"/><polygon points="278.32 49.75 278.32 50.86 274.95 50.86 274.95 53.53 278.72 53.53 278.72 54.65 273.66 54.65 273.66 46.27 278.62 46.27 278.62 47.38 274.95 47.38 274.95 49.75 278.32 49.75" style="fill:#040000;"/><path d="M283.18,46.27c.46,0,1.08,0,1.54,.06,.34,.06,1.34,.2,1.89,1.14,.13,.21,.33,.65,.32,1.28,0,.2-.02,.82-.37,1.35-.18,.27-.41,.5-.68,.68-.24,.15-.45,.23-.55,.27l2.06,3.59h-1.53l-1.91-3.38h-1.29v3.38h-1.29v-8.37h1.8Zm.75,3.88c.34-.02,1.67-.05,1.66-1.42,0-.68-.38-1-.6-1.11-.48-.27-1.29-.23-1.79-.24h-.52v2.78h1.26Z" style="fill:#040000;"/><polygon points="294.46 49.75 294.46 50.86 291.09 50.86 291.09 53.53 294.87 53.53 294.87 54.65 289.8 54.65 289.8 46.27 294.76 46.27 294.76 47.38 291.09 47.38 291.09 49.75 294.46 49.75" style="fill:#040000;"/><path d="M299.92,46.27c1.36,.05,2,.32,2.53,.72,.61,.46,1.53,1.54,1.52,3.46,0,1.17-.38,2.44-1.27,3.26-1.02,.95-2.35,.92-3.62,.92h-1.53v-8.37h2.37Zm-.39,7.26c.65,0,.95-.01,1.26-.1,.58-.13,1.4-.52,1.72-1.87,.12-.51,.12-.92,.12-1.11,0-1.21-.42-2.54-1.71-2.93-.44-.13-.83-.14-1.71-.14h-.37v6.16h.69Z" style="fill:#040000;"/><polygon points="311.74 46.27 313.35 53.09 314.99 46.27 316.11 46.27 317.75 53.09 319.38 46.27 320.58 46.27 318.49 54.67 317.04 54.67 315.54 48.71 314.04 54.67 312.6 54.67 310.52 46.27 311.74 46.27" style="fill:#040000;"/><rect x="322.96" y="46.27" width="1.3" height="8.37" style="fill:#040000;"/><polygon points="332.4 46.27 332.4 47.38 330.2 47.38 330.2 54.65 328.9 54.65 328.9 47.38 326.71 47.38 326.71 46.27 332.4 46.27" style="fill:#040000;"/><polygon points="339.74 49.74 339.74 46.27 341.04 46.27 341.04 54.65 339.74 54.65 339.74 50.82 336.14 50.82 336.14 54.65 334.83 54.65 334.83 46.27 336.14 46.27 336.14 49.74 339.74 49.74" style="fill:#040000;"/><g><path d="M365.97,67.44c9.31,0,16.86-7.55,16.86-16.86s-7.55-16.87-16.86-16.87-16.86,7.55-16.86,16.87,7.55,16.86,16.86,16.86Z" style="fill:#e60012;"/><g><g><path d="M379.37,51.53s-.44,.32-.75,.32c-.24,0-.37-.2-.37-.41,0-.49,.76-2.89,.76-2.89l-1.87,.03-.1,.33s-.27-.55-1.25-.55c-1.9,0-2.94,1.64-2.99,2.6,0,.21-.01,.24-.01,.24-.04,.05-.72,.82-1.54,.82-.66,0-.77-.55-.77-.91,0-.38,.32-1.9,1.22-1.9,.49,0,.79,.43,.79,.43l.26-.87s-.42-.33-1.27-.33c-1.84,0-3.09,1.38-3.14,2.62,0,.19-.02,.25-.01,.26-.06,.07-.51,.59-1.1,.59-.4,0-.4-.31-.4-.45,0-.19,.79-2.89,.79-2.89l-2.08,.03-.74,2.63s-1.14,.82-2.73,.94c-.82,.06-1.1-.44-1.1-.73v-.12s.33,.02,.59,.02c.2,0,2.62-.17,2.62-1.65,0-.85-.85-1.17-1.92-1.17-1.98,0-3.37,1.23-3.37,2.69,0,1.33,1.14,1.9,2.61,1.9,1.66,0,3.29-1.02,3.29-1.02,0,0,.09,1.02,1.4,1.02s2.42-1.02,2.42-1.02c0,0,.59,.98,1.94,.98s2.44-1.11,2.44-1.11c0,0,.37,1.05,1.73,1.05,1.07,0,1.64-.7,1.64-.7,0,0,.3,.7,1.23,.7,1.13,0,1.98-.8,1.98-.8l-.2-.65Zm-17.02-2.44c.28,.02,.47,.22,.46,.42-.05,1.32-1.67,1.12-1.67,1.12,0,0,.26-1.59,1.22-1.54Zm13.06,2.9c-.51,0-.51-.56-.51-.73,0-.43,.34-2.14,1.26-2.14,.39,0,.6,.33,.6,.58,0,.05-.23,2.29-1.35,2.29Z" style="fill:#fff;"/><path d="M379.75,53.31s-4.36,1.52-12.69,1.42c-5.74-.07-10.12-1.77-10.12-1.77,0,0,.14-.28,.23-.46,.58-1.17,1.25-3.56,1.25-3.56,0,0,3.95-1.1,3.95-4.24,0-.99-.92-1.63-1.83-1.67-3.18-.12-4.06,4.41-4.26,5.18-.01,.06-.02,.07-.02,.07-.98-.13-1.54-.33-1.54-.33l-.23,.61c.66,.31,1.63,.42,1.63,.42-.19,1.22-1.13,3.52-1.13,3.52,0,0-.87-.29-1.95-.29-1.4,0-1.88,.67-1.92,1.09-.09,1.08,1.27,1.59,2.22,1.59,1.85,0,2.82-1,2.82-1,0,0,5.22,1.97,10.66,1.97,7.12,0,13.13-1.9,13.13-1.9l-.2-.65Zm-19.06-9.37c.61,0,.81,.49,.76,.94-.3,2.62-2.9,3.22-2.9,3.22,0,0,.65-4.16,2.14-4.16Zm-7.75,10.11c-.53,.02-.87-.33-.87-.53,0-.43,.53-.5,.87-.48,.81,.04,1.51,.32,1.51,.32,0,0-.82,.66-1.51,.68Z" style="fill:#fff;"/></g><path d="M367.01,46.09c-.66,0-1.15,.27-1.15,.89s.56,.8,1.15,.8,1.12-.28,1.12-.92-.65-.77-1.12-.77Z" style="fill:#fff;"/></g></g></g><g><path d="M200.45,.39c-3.53,0-7.06,.45-9.3,2.64-2.23,2.2-3.1,5.5-3.1,9.54s.77,7.29,3.01,9.49c2.23,2.19,5.86,2.72,9.38,2.72s7.04-.45,9.28-2.65c2.23-2.2,3.11-5.52,3.11-9.57s-.78-7.27-3.02-9.47c-2.23-2.2-5.85-2.72-9.38-2.72Zm5.35,18.03c-1.24,1.42-3.49,1.67-5.35,1.67s-4.11-.25-5.35-1.67c-1.24-1.42-1.33-3.38-1.33-5.84s.08-4.37,1.32-5.79c1.24-1.42,3.24-1.67,5.35-1.67s4.11,.25,5.35,1.67c1.24,1.42,1.32,3.33,1.32,5.79s-.08,4.42-1.32,5.84ZM151.54,.82h-5c-.21,0-.39,.17-.39,.38V23.99c0,.21,.17,.38,.39,.38h5c.21,0,.39-.17,.39-.38V1.2c0-.21-.18-.38-.39-.38Zm-21,11.58l8.88-10.99c.19-.24,.02-.59-.28-.59h-6.4c-.15,0-.3,.07-.39,.19l-5.86,7.77-5.72-7.77c-.09-.12-.24-.2-.39-.2h-6.42c-.31,0-.48,.35-.28,.59l8.98,11.19-8.99,11.18c-.18,.24-.01,.59,.29,.59h6.41c.16,0,.3-.08,.39-.2l5.99-7.75,5.68,7.75c.09,.12,.24,.2,.39,.2h6.34c.3,0,.47-.35,.29-.59l-8.9-11.38ZM252.21,2.55c-2.03-1.89-5.3-2.12-7.95-2.12-3.42,0-5.59,.73-6.91,1.41h-.92c-1.29-.71-3.56-1.41-7.14-1.41-2.65,0-5.89,.19-7.89,1.87-1.65,1.39-2.04,3.24-2.04,7.03v14.65c0,.21,.17,.38,.39,.38h4.99c.21,0,.39-.17,.39-.38v-.05s0-9.26,0-12.01c0-2.18-.09-4.44,.38-5.29,.37-.66,.94-1.39,3.65-1.39,3.24,0,4,.23,4.51,1.66,.12,.34,.18,.82,.21,1.41v15.67c0,.21,.17,.38,.39,.38h5c.21,0,.39-.17,.39-.38V8.31c.03-.59,.09-1.07,.21-1.41,.51-1.43,1.27-1.66,4.51-1.66,2.71,0,3.29,.73,3.65,1.39,.47,.84,.38,3.11,.38,5.29,0,2.74,0,12.01,0,12.01v.05c0,.21,.17,.38,.39,.38h4.99c.21,0,.39-.17,.39-.38V10.22c0-3.94-.13-5.95-1.98-7.67Zm-71.7,1.4c-2.31-3.18-6.48-4.15-10.81-3.91-4.39,.24-7.45,1.17-8.23,1.46-.49,.18-.42,.6-.43,.85-.02,.84-.08,3.01-.08,3.9,0,.39,.48,.57,.88,.43,1.6-.57,4.55-1.47,6.93-1.66,2.56-.21,6.05,0,7.01,1.46,.46,.69,.48,1.75,.53,2.83-1.6-.15-3.97-.35-6.32-.22-1.83,.1-5.35,.25-7.41,1.35-1.68,.9-2.67,1.71-3.19,3.22-.42,1.22-.54,2.68-.4,3.88,.31,2.72,1.25,4.08,2.53,5.03,2.02,1.49,4.56,2.28,9.83,2.17,7.01-.15,8.85-2.42,9.78-4.03,1.58-2.74,1.31-7.06,1.26-9.71-.02-1.1-.18-4.72-1.87-7.04Zm-4.57,14.37c-.66,1.39-3.02,1.61-4.42,1.67-2.58,.12-4.48,.01-5.71-.59-.82-.4-1.41-1.33-1.47-2.38-.05-.89-.03-1.35,.37-1.88,.91-1.18,3.28-1.44,5.72-1.53,1.64-.06,4.16,.12,6.01,.34-.01,1.79-.13,3.58-.5,4.36ZM267.5,.82h-5c-.21,0-.39,.17-.39,.38V23.99c0,.21,.17,.38,.39,.38h5c.21,0,.39-.17,.39-.38V1.2c0-.21-.18-.38-.39-.38Z" style="fill:#040000;"/><g><path d="M284.68,8.72V4.54l7.51-4.11h3.08V24.79h-4.64V5.42l-5.95,3.29Z"/><path d="M308.8,10.63c2.66,0,4.5-1.49,4.5-3.58,0-1.91-1.56-3.26-3.79-3.26-1.84,0-3.72,.64-5.59,1.77V1.42c1.98-.92,4.07-1.42,6.09-1.42,4.67,0,7.89,2.69,7.89,6.66,0,2.51-1.49,4.71-3.82,5.56,2.69,.96,4.35,3.26,4.35,6.09,0,4.07-3.5,6.9-8.6,6.9-2.12,0-4.32-.53-6.48-1.56v-4.21c2.02,1.31,3.97,1.98,5.88,1.98,2.66,0,4.53-1.45,4.53-3.54s-1.91-3.68-4.71-3.68h-1.38v-3.58h1.13Z"/><path d="M322.02,4.22V.43h19.4v3.79h-7.36V24.79h-4.64V4.22h-7.4Z"/></g></g><g><path d="M64.18,84.9l8.17,11.35,8.13-11.35h4.25v25.43h-4.55v-17.71l-6.39,8.91h-2.92l-6.32-8.91v17.71h-4.55v-25.43h4.18Z"/><path d="M95.23,110.78c-3.44,0-5.88-2.25-5.88-5.51,0-3.84,3.62-6.51,8.91-6.51,.74,0,1.48,.04,2.29,.07v-.85c0-1.74-1.4-2.92-3.47-2.92-1.92,0-4.03,.59-6.14,1.77v-3.92c2.25-1.03,4.51-1.52,6.69-1.52,4.51,0,7.43,2.81,7.43,6.8v12.12h-4.51v-1.48c-1.63,1.26-3.44,1.92-5.32,1.92Zm1.55-3.66c1.29,0,2.62-.67,3.77-1.81v-3.62c-.67-.07-1.33-.11-2.07-.11-2.66,0-4.47,1.26-4.47,3.03,0,1.48,1.15,2.51,2.77,2.51Z"/><path d="M114.74,107.05c1.66,0,2.81-.85,2.81-2.03,0-3.11-8.58-1.44-8.58-7.91,0-3.36,2.92-5.69,7.06-5.69,1.74,0,3.55,.37,5.25,1.07v4.1c-1.59-.96-3.29-1.44-4.92-1.44s-2.66,.78-2.66,1.89c0,2.96,8.58,1.29,8.58,7.91,0,3.44-2.96,5.84-7.24,5.84-1.89,0-3.77-.44-5.66-1.26v-4.18c1.77,1.11,3.59,1.7,5.36,1.7Z"/><path d="M137.51,91.85v3.81h-5.32v8.54c0,1.52,1.07,2.62,2.7,2.62,.78,0,1.66-.26,2.62-.74v3.92c-1.33,.52-2.62,.78-3.88,.78-3.62,0-6.17-2.48-6.17-5.95v-9.17h-3.18v-3.81h3.18v-5.21h4.73v5.21h5.32Z"/><path d="M149.12,91.41c4.84,0,8.13,3.81,8.13,9.24,0,.52,0,1.11-.07,1.74h-12.53c.3,2.81,2.51,4.73,5.62,4.73,1.7,0,3.59-.63,5.51-1.74v3.96c-2.11,.96-4.21,1.44-6.28,1.44-5.58,0-9.5-4.07-9.5-9.83s3.84-9.54,9.13-9.54Zm-.18,3.66c-2.29,0-4.07,1.7-4.29,4.25h8.06c-.15-2.51-1.66-4.25-3.77-4.25Z"/><path d="M165.75,91.85v1.85c1.33-1.48,2.96-2.29,4.55-2.29,.52,0,1.04,.04,1.55,.18v4.21c-.52-.15-1.11-.22-1.66-.22-1.55,0-3.22,.85-4.44,2.4v12.35h-4.73v-18.48h4.73Z"/><path d="M180.13,91.85v1.26c1.48-1.11,3.1-1.7,4.69-1.7,4.95,0,8.35,3.99,8.35,9.68s-3.4,9.68-8.35,9.68c-1.59,0-3.22-.59-4.69-1.74v9.39h-4.73v-26.58h4.73Zm3.7,3.62c-1.29,0-2.59,.55-3.7,1.66v7.91c1.11,1.11,2.4,1.66,3.7,1.66,2.66,0,4.51-2.29,4.51-5.62s-1.85-5.62-4.51-5.62Z"/><path d="M199.46,84.05c1.55,0,2.7,1.11,2.7,2.7s-1.15,2.66-2.7,2.66-2.7-1.11-2.7-2.66,1.11-2.7,2.7-2.7Zm2.37,7.8v18.48h-4.73v-18.48h4.73Z"/><path d="M214.88,91.41c4.84,0,8.13,3.81,8.13,9.24,0,.52,0,1.11-.07,1.74h-12.53c.3,2.81,2.51,4.73,5.62,4.73,1.7,0,3.59-.63,5.51-1.74v3.96c-2.11,.96-4.21,1.44-6.28,1.44-5.58,0-9.5-4.07-9.5-9.83s3.84-9.54,9.13-9.54Zm-.18,3.66c-2.29,0-4.07,1.7-4.29,4.25h8.06c-.15-2.51-1.66-4.25-3.77-4.25Z"/><path d="M235.02,91.41c1.85,0,3.73,.44,5.58,1.29v4.25c-1.59-1.03-3.22-1.59-4.73-1.59-3.22,0-5.51,2.33-5.51,5.73s2.29,5.73,5.51,5.73c1.52,0,3.14-.55,4.73-1.59v4.25c-1.85,.85-3.73,1.29-5.58,1.29-5.58,0-9.5-4.03-9.5-9.68s3.92-9.68,9.5-9.68Z"/><path d="M252.28,91.41c4.84,0,8.13,3.81,8.13,9.24,0,.52,0,1.11-.07,1.74h-12.53c.3,2.81,2.51,4.73,5.62,4.73,1.7,0,3.59-.63,5.51-1.74v3.96c-2.11,.96-4.21,1.44-6.28,1.44-5.58,0-9.5-4.07-9.5-9.83s3.84-9.54,9.13-9.54Zm-.18,3.66c-2.29,0-4.07,1.7-4.29,4.25h8.06c-.15-2.51-1.66-4.25-3.77-4.25Z"/><path d="M275.79,84.05c1.55,0,2.7,1.11,2.7,2.7s-1.15,2.66-2.7,2.66-2.7-1.11-2.7-2.66,1.11-2.7,2.7-2.7Zm2.37,7.8v18.48h-4.73v-18.48h4.73Z"/><path d="M288.06,91.85v1.59c1.66-1.33,3.51-2.03,5.4-2.03,3.84,0,6.58,2.74,6.58,6.65v12.27h-4.77v-11.42c0-1.96-1.33-3.36-3.25-3.36-1.37,0-2.74,.67-3.95,1.96v12.83h-4.73v-18.48h4.73Z"/><path d="M318.93,107.05c1.66,0,2.81-.85,2.81-2.03,0-3.11-8.58-1.44-8.58-7.91,0-3.36,2.92-5.69,7.06-5.69,1.74,0,3.55,.37,5.25,1.07v4.1c-1.59-.96-3.29-1.44-4.92-1.44s-2.66,.78-2.66,1.89c0,2.96,8.58,1.29,8.58,7.91,0,3.44-2.96,5.84-7.24,5.84-1.89,0-3.77-.44-5.66-1.26v-4.18c1.77,1.11,3.59,1.7,5.36,1.7Z"/><path d="M332.75,84.05c1.55,0,2.7,1.11,2.7,2.7s-1.15,2.66-2.7,2.66-2.7-1.11-2.7-2.66,1.11-2.7,2.7-2.7Zm2.37,7.8v18.48h-4.73v-18.48h4.73Z"/><path d="M347.28,118.87c-2.14,0-4.32-.48-6.51-1.4v-4.14c2.07,1.15,4.18,1.81,6.06,1.81,3.1,0,5.25-2,5.25-4.88v-1.22c-1.44,1.15-3.07,1.74-4.69,1.74-4.92,0-8.35-3.99-8.35-9.68s3.44-9.68,8.35-9.68c1.63,0,3.25,.59,4.69,1.7v-1.26h4.77v18.26c0,5.1-3.92,8.76-9.57,8.76Zm1.15-12.16c1.29,0,2.59-.55,3.66-1.66v-7.91c-1.07-1.11-2.37-1.66-3.66-1.66-2.7,0-4.55,2.29-4.55,5.62s1.85,5.62,4.55,5.62Z"/><path d="M366.72,83.76v9.68c1.66-1.33,3.51-2.03,5.4-2.03,3.84,0,6.58,2.74,6.58,6.65v12.27h-4.77v-11.42c0-1.96-1.33-3.36-3.25-3.36-1.37,0-2.74,.67-3.95,1.96v12.83h-4.73v-26.58h4.73Z"/><path d="M395,91.85v3.81h-5.32v8.54c0,1.52,1.07,2.62,2.7,2.62,.78,0,1.66-.26,2.62-.74v3.92c-1.33,.52-2.62,.78-3.88,.78-3.62,0-6.17-2.48-6.17-5.95v-9.17h-3.18v-3.81h3.18v-5.21h4.73v5.21h5.32Z"/></g></svg>